<svg xmlns="http://www.w3.org/2000/svg" width="32" height="32" id="telescope">
  <path fill-rule="evenodd" d="M16 2A14 14 0 0 0 2 16a14 14 0 0 0 14 14 14 14 0 0 0 14-14A14 14 0 0 0 16 2zm5.62 8a.5.5 0 0 1 .507.396l.2.887a.5.5 0 0 1 .023.072.5.5 0 0 1 .013.088l.846 3.766a.5.5 0 0 1 .027.121l.203.904a.5.5 0 0 1-.976.22l-.108-.48-4.39.987a.5.5 0 0 1-.598-.379l-.11-.488-.724.164 1.899 7.119a.5.5 0 1 1-.967.258l-1.516-5.68-1.513 5.68a.5.5 0 1 1-.967-.258l1.824-6.842-2.426.547a.5.5 0 0 1-.597-.379l-.11-.486-1.951.437a.5.5 0 1 1-.977.219l-.109-.488-.11-.487a.5.5 0 0 1 .47-.617.5.5 0 0 1 .507.397l1.95-.438-.11-.488a.5.5 0 0 1 .379-.598l4.39-.986-.109-.488a.5.5 0 0 1 .377-.598l4.39-.986-.107-.479a.5.5 0 0 1 .47-.617zm-.143 2.068-3.903.88.09.396a.5.5 0 0 1 .025.082.5.5 0 0 1 .014.092.5.5 0 0 1 0 .01l.399 1.769a.5.5 0 0 1 .043.187l.087.391 3.903-.877-.658-2.928v-.002zm-4.659 2.075-3.902.877.092.412a.5.5 0 0 1 .035.158l.092.406 3.904-.877-.22-.976z"></path>
</svg>
